<svg width="25" height="25" viewBox="0 0 25 25" fill="none" xmlns="http://www.w3.org/2000/svg">
<path d="M11.0874 7.6377H13.0874V9.6377H11.0874V7.6377ZM11.0874 11.6377H13.0874V17.6377H11.0874V11.6377ZM12.0874 2.6377C6.5674 2.6377 2.0874 7.1177 2.0874 12.6377C2.0874 18.1577 6.5674 22.6377 12.0874 22.6377C17.6074 22.6377 22.0874 18.1577 22.0874 12.6377C22.0874 7.1177 17.6074 2.6377 12.0874 2.6377ZM12.0874 20.6377C7.6774 20.6377 4.0874 17.0477 4.0874 12.6377C4.0874 8.2277 7.6774 4.6377 12.0874 4.6377C16.4974 4.6377 20.0874 8.2277 20.0874 12.6377C20.0874 17.0477 16.4974 20.6377 12.0874 20.6377Z" fill="white"/>
</svg>
